<?xml version="1.0" encoding="utf-8"?>
<svg viewBox="0 0 336.52 34.97" width="100%" height="34.97" xmlns="http://www.w3.org/2000/svg">
  <ellipse cx="17.68" cy="17.48" rx="17.68" ry="17.48" style="fill:#f99b26"/>
  <path d="M16.9,31.93l3.4,1.18,9,8.24,7.4-7.45,4.4-2.16-2-2.95L40.3,20,33.9,27H24.28L18.5,20,19,28.58,16.9,31.93Z" transform="matrix(1, 0, 0, 1, -11.31, -12.520001)" style="fill:#fff;fill-rule:evenodd"/>
  <path d="M82.2,37.21a14.58,14.58,0,0,1-12.72,7.08C61,44.29,54.77,38.05,54.77,30c0-7.56,6.19-13.88,14.71-13.88,5.8,0,10.36,2.72,12.8,6.8l-5.56,3.24A8.21,8.21,0,0,0,61.4,30a8,8,0,0,0,8.08,8.12A7.91,7.91,0,0,0,76.64,34Z" transform="matrix(1, 0, 0, 1, -11.31, -12.520001)"/>
  <path d="M105.28,39.57H92.16l-1.8,4.24h-7L95,16.61h7.32L114,43.81h-7ZM103,34.21,98.76,24.05,94.44,34.21Z" transform="matrix(1, 0, 0, 1, -11.31, -12.520001)"/>
  <path d="M141.16,27.09c0,5.36-3.4,10.56-10.36,10.56h-5.92v6.16h-6.59V16.61h12.55C137.8,16.61,141.16,21.81,141.16,27.09Zm-16.28-4.4v8.92h5.2c2.64,0,4.44-1.56,4.44-4.52s-1.8-4.36-4.44-4.4Z" transform="matrix(1, 0, 0, 1, -11.31, -12.520001)"/>
  <path d="M170.52,22.69h-9.64V43.81h-6.64V22.69h-9.63V16.61h25.91Z" transform="matrix(1, 0, 0, 1, -11.31, -12.520001)"/>
  <path d="M199.52,37.21a14.58,14.58,0,0,1-12.72,7.08c-8.52,0-14.72-6.24-14.72-14.28,0-7.56,6.2-13.88,14.72-13.88,5.8,0,10.36,2.72,12.8,6.8L194,26.17A8.21,8.21,0,0,0,178.72,30a8,8,0,0,0,8.08,8.12A7.91,7.91,0,0,0,194,34Z" transform="matrix(1, 0, 0, 1, -11.31, -12.520001)"/>
  <path d="M229,43.81h-6.6V33.25h-12V43.81h-6.56V16.61h6.56V27.17h12V16.61H229Z" transform="matrix(1, 0, 0, 1, -11.31, -12.520001)"/>
  <path d="M255.4,39.57H242.28l-1.8,4.24h-7l11.64-27.2h7.32l11.68,27.2h-7Zm-2.28-5.36-4.24-10.16-4.32,10.16Z" transform="matrix(1, 0, 0, 1, -11.31, -12.520001)"/>
  <path d="M289.44,22.69H275.16v6.24h11.92v6H275.16v8.84H268.6V16.61h20.84Z" transform="matrix(1, 0, 0, 1, -11.31, -12.520001)" style="fill:#f89a25"/>
  <path d="M318.88,30.21a14,14,0,1,1-14-14.08A14.09,14.09,0,0,1,318.88,30.21Zm-22.08,0a8,8,0,1,0,8-8A8,8,0,0,0,296.8,30.21Z" transform="matrix(1, 0, 0, 1, -11.31, -12.520001)" style="fill:#f89a25"/>
  <path d="M319.48,39.49l9.12-9L319,20.81l4.68-4.68,9.6,9.68,9.88-9.68,4.68,4.64-10,9.8,9.08,9-4.76,4.72-9-9.12-9.08,9Z" transform="matrix(1, 0, 0, 1, -11.31, -12.520001)" style="fill:#f89a25"/>
</svg>